# Blender 3.3.0
# www.blender.org
mtllib 床柱.mtl
o 円
v -1.000000 0.000000 0.000000
v -0.500000 0.000000 0.866025
v 0.500000 0.000000 0.866025
v 1.000000 0.000000 -0.000000
v 0.500000 0.000000 -0.866025
v -0.500000 0.000000 -0.866025
v -1.000000 10.000000 0.000000
v -0.500000 10.000000 0.866025
v 0.500000 10.000000 0.866025
v 1.000000 10.000000 -0.000000
v 0.500000 10.000000 -0.866025
v -0.500000 10.000000 -0.866025
vn -0.0000 -1.0000 -0.0000
vn -0.0000 1.0000 -0.0000
vn 0.8660 -0.0000 -0.5000
vn -0.0000 -0.0000 1.0000
vn -0.0000 -0.0000 -1.0000
vn 0.8660 -0.0000 0.5000
vn -0.8660 -0.0000 0.5000
vn -0.8660 -0.0000 -0.5000
vt 0.400000 0.250000
vt 0.250000 0.000000
vt 0.400000 0.350000
vt 0.350000 0.000000
vt 0.486603 0.400000
vt 0.400000 0.000000
vt 0.000000 0.000000
vt 0.573205 0.350000
vt 0.050000 0.000000
vt 0.573205 0.250000
vt 0.150000 0.000000
vt 0.486603 0.200000
vt 0.200000 0.000000
vt 0.400000 0.050000
vt 0.250000 1.000000
vt 0.486603 0.000000
vt 0.350000 1.000000
vt 0.573205 0.050000
vt 0.400000 1.000000
vt 0.000000 1.000000
vt 0.573205 0.150000
vt 0.050000 1.000000
vt 0.486603 0.200000
vt 0.150000 1.000000
vt 0.400000 0.150000
vt 0.200000 1.000000
s 0
usemtl マテリアル
f 2/3/1 1/1/1 6/12/1 5/10/1 4/8/1 3/5/1
f 8/16/2 9/18/2 10/21/2 11/23/2 12/25/2 7/14/2
f 4/9/3 5/11/3 11/24/3 10/22/3
f 2/4/4 3/6/4 9/19/4 8/17/4
f 5/11/5 6/13/5 12/26/5 11/24/5
f 3/7/6 4/9/6 10/22/6 9/20/6
f 1/2/7 2/4/7 8/17/7 7/15/7
f 6/13/8 1/2/8 7/15/8 12/26/8
