# Blender 3.3.0
# www.blender.org
mtllib spider2_newer.mtl
o 立方体
v -0.037845 -0.794451 0.195754
v -0.127671 -0.806979 0.058214
v -0.260832 -0.759031 0.140813
v -0.171005 -0.746502 0.278353
v 0.069899 -0.670208 0.183293
v -0.082944 -0.691525 -0.050736
v -0.309521 -0.609939 0.089808
v -0.156678 -0.588622 0.323837
v 0.095424 -0.552065 0.155861
v -0.057419 -0.573383 -0.078168
v -0.283996 -0.491797 0.062376
v -0.131153 -0.470480 0.296406
v 0.013434 -0.441284 0.108683
v -0.056901 -0.451094 0.000989
v -0.161165 -0.413550 0.065664
v -0.090831 -0.403740 0.173358
v 0.099198 -0.044326 0.016513
v 0.028864 -0.054136 -0.091181
v -0.075401 -0.016592 -0.026506
v -0.005067 -0.006782 0.081188
v 0.192587 0.087476 -0.000942
v 0.071690 0.070614 -0.186056
v -0.107530 0.135148 -0.074887
v 0.013367 0.152010 0.110227
v 0.218112 0.205618 -0.028373
v 0.097215 0.188757 -0.213488
v -0.082005 0.253290 -0.102319
v 0.038893 0.270152 0.082796
v 0.197044 0.301835 -0.059192
v 0.108750 0.289520 -0.194385
v -0.022138 0.336650 -0.113196
v 0.066156 0.348965 0.021997
v 0.201130 0.238410 -0.056084
v 0.112836 0.226096 -0.191277
v -0.022040 0.226477 -0.103225
v 0.066254 0.238792 0.031968
v 0.271467 0.363440 -0.048095
v 0.123715 0.342833 -0.274329
v -0.101988 0.343472 -0.126983
v 0.045764 0.364079 0.099252
v 0.069987 1.151617 -0.135915
v 0.056612 1.149752 -0.156394
v 0.036180 1.149809 -0.143056
v 0.049556 1.151675 -0.122576
vn -0.2059 -0.9532 0.2213
vn -0.8126 0.2926 0.5041
vn -0.5827 -0.4269 -0.6916
vn -0.8309 -0.0831 0.5502
vn 0.6776 -0.6263 -0.3855
vn 0.4287 -0.2858 0.8570
vn 0.7718 0.3432 -0.5353
vn 0.8126 -0.2926 -0.5041
vn 0.5452 0.0760 0.8348
vn -0.5452 -0.0760 -0.8348
vn 0.5584 0.6387 0.5294
vn -0.3085 0.5178 -0.7979
vn -0.5228 0.8094 0.2677
vn -0.8371 -0.0028 0.5470
vn -0.8126 0.2926 0.5040
vn 0.7151 -0.5618 -0.4159
vn 0.4592 -0.2111 0.8629
vn -0.5818 -0.3563 -0.7311
vn -0.4574 0.2159 -0.8627
vn 0.8126 -0.2926 -0.5040
vn 0.2059 0.9532 -0.2213
vn -0.7129 0.5660 0.4140
vn 0.8369 0.0080 -0.5473
vn 0.5820 0.3609 0.7288
vn 0.0396 -0.9971 0.0650
vn 0.5328 0.2270 0.8152
vn 0.5136 -0.3393 0.7881
vn -0.4811 -0.4780 -0.7349
vn -0.7483 -0.4046 0.5256
vn 0.7806 -0.4090 -0.4726
vn -0.0396 0.9971 -0.0650
vn -0.5449 0.0767 -0.8350
vn -0.8337 0.1534 0.5305
vn 0.8217 0.1487 -0.5502
vt 0.571617 0.554364
vt 0.135495 0.688806
vt 0.205943 0.641767
vt 0.571617 0.654674
vt 0.375050 0.000148
vt 0.035185 0.688806
vt 0.671390 0.654674
vt 0.474817 0.000000
vt 0.506460 0.674584
vt 0.671390 0.554364
vt 0.506460 0.774894
vt 0.305714 0.641700
vt 0.170681 0.609223
vt 0.170681 0.551705
vt 0.000000 0.609223
vt 0.340444 0.091425
vt 0.415197 0.639398
vt 0.510201 0.091173
vt 0.415197 0.810080
vt 0.340444 0.551591
vt 0.170681 0.534989
vt 0.170681 0.476543
vt 0.000000 0.534989
vt 0.340444 0.166206
vt 0.340444 0.639399
vt 0.510201 0.165955
vt 0.571617 0.554364
vt 0.340444 0.810080
vt 0.340444 0.476429
vt 0.571617 0.725045
vt 0.216850 0.420491
vt 0.124612 0.467366
vt 0.385754 0.219786
vt 0.046069 0.467366
vt 0.510201 0.600433
vt 0.463872 0.219671
vt 0.779952 0.972165
vt 0.294971 0.420439
vt 0.510201 0.678976
vt 0.701409 0.972165
vt 0.124612 0.217940
vt 0.216850 0.167947
vt 0.046069 0.217940
vt 0.385754 0.471052
vt 0.779952 0.720994
vt 0.463872 0.470936
vt 0.701409 0.720994
vt 0.294971 0.167894
vt 0.188557 0.075253
vt 0.152844 0.133906
vt 0.357987 0.564617
vt 0.017837 0.133906
vt 0.492263 0.564418
vt 0.808184 0.627447
vt 0.322837 0.075162
vt 0.673177 0.627448
vt 0.188557 0.000091
vt 0.152844 0.059672
vt 0.625000 0.500000
vt 0.625000 0.500000
vt 0.357987 0.639399
vt 0.017837 0.059672
vt 0.492263 0.639199
vt 0.808184 0.552694
vt 0.375000 0.500000
vt 0.322837 0.000000
vt 0.673177 0.552694
vt 0.375000 0.500000
vt 0.134640 0.000000
vt 0.625000 0.500000
vt 0.625000 0.500000
vt 0.036041 0.000000
vt 0.375000 0.500000
vt 0.375000 0.500000
vt 0.625000 0.500000
vt 0.530952 0.015381
vt 0.625000 0.500000
vt 0.789067 0.552694
vt 0.628344 0.000000
vt 0.692362 0.536625
vt 0.375000 0.500000
vt 0.375000 0.500000
vt 0.835004 0.971401
vt 0.625000 0.500000
vt 0.510201 0.096803
vt 0.835004 0.481645
vt 0.673177 0.071064
vt 0.375000 0.500000
vt 0.673177 0.454755
vt 1.000000 0.492504
vt 0.999027 0.971401
vt 0.375000 0.500000
vt 0.835004 0.492504
vt 0.913416 0.492504
vt 0.185537 0.641768
vt 0.658424 0.554364
vt 0.185537 0.656704
vt 0.835004 0.002434
vt 0.673177 0.552034
vt 0.170681 0.656704
vt 0.820354 0.000000
vt 0.924970 0.000000
vt 0.928264 0.492504
vt 0.170681 0.641767
vt 0.910034 0.000000
s 0
f 2/4/1 1/1/1 4/10/1 3/7/1
f 7/17/2 8/19/2 12/28/2 11/25/2
f 2/5/3 3/8/3 7/18/3 6/16/3
f 3/9/4 4/11/4 8/19/4 7/17/4
f 1/2/5 2/6/5 6/15/5 5/13/5
f 4/12/6 1/3/6 5/14/6 8/20/6
f 9/21/7 10/23/7 14/34/7 13/32/7
f 5/13/8 6/15/8 10/23/8 9/21/8
f 8/20/9 5/14/9 9/22/9 12/29/9
f 6/16/10 7/18/10 11/26/10 10/24/10
f 16/38/9 13/31/9 17/42/9 20/48/9
f 12/29/11 9/22/11 13/31/11 16/38/11
f 10/24/12 11/26/12 15/36/12 14/33/12
f 11/27/13 12/30/13 16/39/13 15/35/13
f 19/45/14 20/47/14 24/56/14 23/54/14
f 14/33/10 15/36/10 19/46/10 18/44/10
f 15/37/15 16/40/15 20/47/15 19/45/15
f 13/32/8 14/34/8 18/43/8 17/41/8
f 24/55/9 21/49/9 25/57/9 28/66/9
f 17/41/16 18/43/16 22/52/16 21/50/16
f 20/48/17 17/42/17 21/49/17 24/55/17
f 18/44/18 19/46/18 23/53/18 22/51/18
f 26/60/19 27/65/19 31/73/19 30/71/19
f 22/51/10 23/53/10 27/63/10 26/61/10
f 23/54/2 24/56/2 28/67/2 27/64/2
f 21/50/20 22/52/20 26/62/20 25/58/20
f 30/71/21 31/73/21 32/74/21 29/70/21
f 27/65/22 28/68/22 32/74/22 31/73/22
f 25/58/23 26/62/23 30/72/23 29/69/23
f 28/68/24 25/59/24 29/70/24 32/74/24
f 34/77/25 33/75/25 36/82/25 35/81/25
f 40/91/26 37/83/26 41/94/26 44/103/26
f 36/82/27 33/75/27 37/84/27 40/92/27
f 34/78/28 35/80/28 39/89/28 38/86/28
f 35/81/29 36/82/29 40/92/29 39/88/29
f 33/76/30 34/79/30 38/87/30 37/85/30
f 42/97/31 43/100/31 44/104/31 41/95/31
f 38/86/32 39/89/32 43/101/32 42/98/32
f 39/90/33 40/93/33 44/105/33 43/102/33
f 37/85/34 38/87/34 42/99/34 41/96/34
